<?xml version="1.0" encoding="UTF-8" standalone="no"?>
<svg
   xmlns:dc="http://purl.org/dc/elements/1.1/"
   xmlns:cc="http://creativecommons.org/ns#"
   xmlns:rdf="http://www.w3.org/1999/02/22-rdf-syntax-ns#"
   xmlns:svg="http://www.w3.org/2000/svg"
   xmlns="http://www.w3.org/2000/svg"
   xmlns:sodipodi="http://sodipodi.sourceforge.net/DTD/sodipodi-0.dtd"
   xmlns:inkscape="http://www.inkscape.org/namespaces/inkscape"
   height="720"
   width="1280"
   inkscape:version="1.0.1 (3bc2e813f5, 2020-09-07)"
   sodipodi:docname="fanart.svg"
   id="svg6"
   version="1.1"
   viewBox="0 0 1280 720.00003">
  <metadata
     id="metadata12">
    <rdf:RDF>
      <cc:Work
         rdf:about="">
        <dc:format>image/svg+xml</dc:format>
        <dc:type
           rdf:resource="http://purl.org/dc/dcmitype/StillImage" />
        <dc:title></dc:title>
      </cc:Work>
    </rdf:RDF>
  </metadata>
  <defs
     id="defs10" />
  <sodipodi:namedview
     fit-margin-bottom="0"
     fit-margin-right="0"
     fit-margin-left="0"
     fit-margin-top="0"
     inkscape:current-layer="svg6"
     inkscape:window-maximized="1"
     inkscape:window-y="27"
     inkscape:window-x="0"
     inkscape:cy="328.21889"
     inkscape:cx="222.53587"
     inkscape:zoom="0.53071182"
     showgrid="false"
     id="namedview8"
     inkscape:window-height="1016"
     inkscape:window-width="1920"
     inkscape:pageshadow="2"
     inkscape:pageopacity="0"
     guidetolerance="10"
     gridtolerance="10"
     objecttolerance="10"
     borderopacity="1"
     bordercolor="#666666"
     pagecolor="#ffffff"
     inkscape:document-rotation="0" />
  <g
     id="g995"
     transform="translate(88.737259,19.28706)">
    <rect
       style="fill:#2b2b2b;fill-opacity:1;stroke-width:2.82393"
       id="rect841-3"
       width="1280"
       height="720"
       x="-88.737259"
       y="-19.28706" />
    <g
       id="g989"
       transform="matrix(1.4788485,0,0,1.4788485,172.6781,-37.873465)">
      <path
         id="path4"
         style="fill:#ffffff;fill-opacity:1;stroke-width:1.2206"
         d="m 466.39648,218.69531 c -0.50564,0.0107 -1.04903,0.27792 -1.30078,0.54492 l -9.24023,8.86133 a 0.92765965,0.92765965 0 0 1 -0.0957,0.13477 h -10.71875 a 1.537962,1.537962 0 0 0 -1.53711,1.53711 v 53.41406 a 1.537962,1.537962 0 0 0 1.53711,1.53906 h 33.38476 A 1.525756,1.525756 0 0 0 480,283.1875 v -8.78906 a 1.51355,1.51355 0 0 0 -1.52539,-1.52539 h -22.33789 v -10.88672 h 18.38281 a 1.537962,1.537962 0 0 0 1.53711,-1.53906 v -8.78711 a 1.5867862,1.5867862 0 0 0 -1.53711,-1.52735 H 456.08789 V 240.125 h 22.33789 A 1.51355,1.51355 0 0 0 480,238.59961 v -8.78906 a 1.525756,1.525756 0 0 0 -1.52539,-1.53711 h -11.46094 l 3.99024,-2.79688 a 1.6600225,1.6600225 0 0 0 -0.0723,-2.43945 l -3.73633,-4.0293 c -0.20597,-0.23344 -0.49544,-0.31893 -0.79883,-0.3125 z m -125.89062,8.75977 a 27.060808,27.060808 0 0 0 -0.86328,0.0117 29.038188,29.038188 0 1 0 0,58.06445 27.658905,27.658905 0 0 0 19.5293,-7.82422 1.6111983,1.6111983 0 0 0 0.0859,-2.17187 l -6.29883,-6.70118 a 1.5745802,1.5745802 0 0 0 -2.08593,-0.0742 17.088467,17.088467 0 0 1 -10.81641,3.86914 15.977717,15.977717 0 0 1 -15.86719,-16.36719 c 0,-9.03247 6.74927,-16.61328 15.86719,-16.61328 a 16.514783,16.514783 0 0 1 10.88867,4.11328 1.4159016,1.4159016 0 0 0 2.01367,0 l 6.28711,-6.5293 a 1.4891379,1.4891379 0 0 0 -0.0859,-2.25781 27.060808,27.060808 0 0 0 -18.6543,-7.51953 z m -198.30859,0.0117 a 1.6356104,1.6356104 0 0 0 -1.36719,0.89062 l -25.24219,54.26953 a 1.4281076,1.4281076 0 0 0 1.37891,2.09961 h 8.86328 a 3.0026878,3.0026878 0 0 0 2.9043,-1.9414 l 2.86914,-6.44532 h 21.9707 l 2.9043,6.3711 c 0.72015,1.52576 1.36779,2.01562 2.82031,2.01562 h 8.94726 a 1.4281076,1.4281076 0 0 0 1.37891,-2.09961 L 144.38281,228.3574 a 1.6356104,1.6356104 0 0 0 -1.3789,-0.89062 z m 134.86523,0 a 28.977158,28.977158 0 0 0 -28.97656,29.11132 29.038188,29.038188 0 1 0 28.97656,-29.11132 z m -101.73047,0.80664 a 1.537962,1.537962 0 0 0 -1.52148,1.53711 v 53.37695 a 1.537962,1.537962 0 0 0 1.52734,1.53906 h 30.31836 a 1.537962,1.537962 0 0 0 1.53906,-1.53906 v -8.78906 a 1.525756,1.525756 0 0 0 -1.53906,-1.52539 h -19.1875 v -43.0625 a 1.5989923,1.5989923 0 0 0 -1.53711,-1.53711 h -9.59375 a 1.537962,1.537962 0 0 0 -0.006,0 z m 38.7793,0 a 1.537962,1.537962 0 0 0 -1.52149,1.53711 v 53.37695 a 1.537962,1.537962 0 0 0 1.53711,1.53906 h 30.29688 a 1.537962,1.537962 0 0 0 1.52539,-1.53906 v -8.78906 a 1.525756,1.525756 0 0 0 -1.52539,-1.52539 h -19.22461 v -43.0625 a 1.5867862,1.5867862 0 0 0 -1.52539,-1.53711 h -9.54688 a 1.537962,1.537962 0 0 0 -0.0156,0 z m 153.91015,0 a 1.5867862,1.5867862 0 0 0 -1.5371,1.53711 v 53.37695 a 1.5867862,1.5867862 0 0 0 1.5371,1.53906 h 9.66797 a 1.5989923,1.5989923 0 0 0 1.53711,-1.53906 v -53.37695 a 1.5989923,1.5989923 0 0 0 -1.53711,-1.53711 z m 20.49024,0 a 1.525756,1.525756 0 0 0 -1.48438,1.45117 l 0.0606,53.46289 a 1.5867862,1.5867862 0 0 0 1.52539,1.53906 h 9.60547 a 1.537962,1.537962 0 0 0 1.55078,-1.53906 v -30.07617 h 0.0859 l 30.09961,30.17383 a 3.6618144,3.6618144 0 0 0 2.52734,1.4414 h 1.5625 a 1.51355,1.51355 0 0 0 1.52539,-1.45312 v -53.46289 a 1.5867862,1.5867862 0 0 0 -1.52539,-1.53711 h -9.67969 a 1.525756,1.525756 0 0 0 -1.52539,1.53711 v 28.62304 h -0.0859 l -30.17383,-29.03711 a 4.0157898,4.0157898 0 0 0 -2.36719,-1.12304 h -1.64844 a 1.525756,1.525756 0 0 0 -0.0527,0 z M 277.25781,240.3574 a 16.136395,16.136395 0 0 1 -0.19531,32.27149 16.160808,16.160808 0 0 1 -16.05078,-16.05079 16.136395,16.136395 0 0 1 16.24609,-16.2207 z m -134.70703,11.7051 h 0.0859 l 6.10351,13.30469 h -12.29101 z" />
      <path
         id="path2"
         style="fill:#fecc00;fill-opacity:1;stroke-width:1.2206"
         d="m 84.134766,207.31446 a 3.307839,3.307839 0 0 0 -0.464844,0.0371 l -13.878906,2.23438 a 10.680292,10.680292 0 0 1 -21.091797,3.34375 l -13.878907,2.19726 a 3.307839,3.307839 0 0 0 -2.783203,3.77149 l 13.158203,83.00195 a 3.295633,3.295633 0 0 0 3.773438,2.74609 l 13.876953,-2.19726 a 10.693193,10.693193 0 0 1 21.128906,-3.3086 l 13.878907,-2.19726 a 3.2834269,3.2834269 0 0 0 2.734374,-3.77148 l -13.146484,-83.0371 a 3.307839,3.307839 0 0 0 -3.30664,-2.82032 z m -12.855469,26.41993 c 0.267806,-0.003 0.51723,0.0195 0.746094,0.0684 1.672229,0.36618 3.942495,2.44104 5.333984,3.86915 a 2.4412096,2.4412096 0 0 1 0.195313,2.95312 l -4.992188,7.32422 a 3.4665176,3.4665176 0 0 1 -1.757812,1.2207 c -2.062822,0.48824 -5.065601,-3.90543 -7.189454,6.10352 -2.123852,10.00896 2.403944,7.23692 4.076172,8.54297 a 3.55196,3.55196 0 0 1 1.148438,1.76953 l 1.597656,8.6914 h -0.04883 a 2.4412096,2.4412096 0 0 1 -1.390625,2.61133 c -1.843113,0.74456 -4.736466,1.73337 -6.445313,1.36719 -3.661814,-0.78118 -9.483144,-9.84934 -6.333984,-24.63086 2.952337,-13.85768 11.043458,-19.84052 15.060547,-19.89062 z" />
    </g>
  </g>
</svg>
