<?xml version="1.0" encoding="UTF-8" standalone="no"?>
<svg
   xmlns:dc="http://purl.org/dc/elements/1.1/"
   xmlns:cc="http://creativecommons.org/ns#"
   xmlns:rdf="http://www.w3.org/1999/02/22-rdf-syntax-ns#"
   xmlns:svg="http://www.w3.org/2000/svg"
   xmlns="http://www.w3.org/2000/svg"
   xmlns:sodipodi="http://sodipodi.sourceforge.net/DTD/sodipodi-0.dtd"
   xmlns:inkscape="http://www.inkscape.org/namespaces/inkscape"
   height="512"
   width="512"
   inkscape:version="1.0.1 (3bc2e813f5, 2020-09-07)"
   sodipodi:docname="icon.svg"
   id="svg6"
   version="1.1"
   viewBox="0 0 512.00001 512.00002">
  <metadata
     id="metadata12">
    <rdf:RDF>
      <cc:Work
         rdf:about="">
        <dc:format>image/svg+xml</dc:format>
        <dc:type
           rdf:resource="http://purl.org/dc/dcmitype/StillImage" />
        <dc:title></dc:title>
      </cc:Work>
    </rdf:RDF>
  </metadata>
  <defs
     id="defs10" />
  <sodipodi:namedview
     fit-margin-bottom="0"
     fit-margin-right="0"
     fit-margin-left="0"
     fit-margin-top="0"
     inkscape:current-layer="svg6"
     inkscape:window-maximized="1"
     inkscape:window-y="27"
     inkscape:window-x="0"
     inkscape:cy="228.98937"
     inkscape:cx="312.2601"
     inkscape:zoom="1.5010797"
     showgrid="false"
     id="namedview8"
     inkscape:window-height="1016"
     inkscape:window-width="1920"
     inkscape:pageshadow="2"
     inkscape:pageopacity="0"
     guidetolerance="10"
     gridtolerance="10"
     objecttolerance="10"
     borderopacity="1"
     bordercolor="#666666"
     pagecolor="#ffffff"
     inkscape:document-rotation="0" />
  <g
     id="g848">
    <rect
       style="fill:#fecc00;stroke:none;stroke-width:1.5061"
       id="rect841"
       width="512"
       height="512"
       x="4.4091798e-06"
       y="-1.1718751e-07" />
    <g
       id="g839"
       transform="matrix(1.2206048,0,0,1.2206048,32.037987,207.3515)">
      <path
         id="path2"
         d="M 45.39,2.28 A 2.71,2.71 0 0 0 42.3,0 L 30.93,1.83 A 8.75,8.75 0 0 1 13.65,4.57 L 2.28,6.37 A 2.71,2.71 0 0 0 0,9.46 l 10.78,68 a 2.7,2.7 0 0 0 3.09,2.25 l 11.37,-1.8 A 8.7604252,8.7604252 0 0 1 42.55,75.2 l 11.37,-1.8 a 2.69,2.69 0 0 0 2.24,-3.09 z"
         fill="#ffffff" />
      <path
         id="path4"
         d="M 68.45,61.67 89.13,17.21 a 1.34,1.34 0 0 1 1.12,-0.73 h 0.66 a 1.34,1.34 0 0 1 1.13,0.73 l 20.68,44.46 a 1.17,1.17 0 0 1 -1.13,1.72 h -7.33 c -1.19,0 -1.72,-0.4 -2.31,-1.65 l -2.38,-5.22 h -18 l -2.35,5.28 a 2.46,2.46 0 0 1 -2.38,1.59 h -7.26 a 1.17,1.17 0 0 1 -1.13,-1.72 z m 27.16,-14.14 -5,-10.9 h -0.07 l -5,10.9 z M 116.15,18.4 a 1.26,1.26 0 0 1 1.25,-1.26 h 7.86 a 1.31,1.31 0 0 1 1.26,1.26 v 35.28 h 15.72 a 1.25,1.25 0 0 1 1.26,1.25 v 7.2 a 1.26,1.26 0 0 1 -1.26,1.26 H 117.4 a 1.26,1.26 0 0 1 -1.25,-1.26 z m 31.77,0 a 1.26,1.26 0 0 1 1.26,-1.26 H 157 a 1.3,1.3 0 0 1 1.25,1.26 V 53.68 H 174 a 1.25,1.25 0 0 1 1.25,1.25 v 7.2 A 1.26,1.26 0 0 1 174,63.39 h -24.82 a 1.26,1.26 0 0 1 -1.26,-1.26 z m 52.82,-1.92 A 23.79,23.79 0 1 1 177,40.33 23.74,23.74 0 0 1 200.74,16.48 Z m 0,37 a 13.22,13.22 0 1 0 -13.15,-13.15 13.24,13.24 0 0 0 13.15,13.15 z m 51.26,-37 a 22.17,22.17 0 0 1 16,6.15 1.22,1.22 0 0 1 0.07,1.85 l -5.15,5.35 a 1.16,1.16 0 0 1 -1.65,0 13.53,13.53 0 0 0 -8.92,-3.37 c -7.47,0 -13,6.21 -13,13.61 a 13.09,13.09 0 0 0 13,13.41 14,14 0 0 0 8.86,-3.17 1.29,1.29 0 0 1 1.71,0.06 l 5.16,5.49 a 1.32,1.32 0 0 1 -0.07,1.78 22.66,22.66 0 0 1 -16,6.41 23.79,23.79 0 1 1 0,-47.57 z m 22,1.92 a 1.3,1.3 0 0 1 1.26,-1.26 h 7.92 a 1.31,1.31 0 0 1 1.26,1.26 v 43.73 a 1.31,1.31 0 0 1 -1.26,1.26 h -7.92 A 1.3,1.3 0 0 1 274,62.13 Z m 16.83,-0.07 a 1.25,1.25 0 0 1 1.26,-1.19 h 1.35 a 3.29,3.29 0 0 1 1.94,0.92 l 24.72,23.79 h 0.07 V 18.4 a 1.25,1.25 0 0 1 1.25,-1.26 h 7.93 a 1.3,1.3 0 0 1 1.25,1.26 v 43.8 a 1.24,1.24 0 0 1 -1.25,1.19 h -1.28 A 3,3 0 0 1 326,62.21 L 301.34,37.49 h -0.07 V 62.13 A 1.26,1.26 0 0 1 300,63.39 h -7.87 a 1.3,1.3 0 0 1 -1.25,-1.26 z m 74.88,8.52 A 1.24,1.24 0 0 0 367,25.6 v -7.2 a 1.25,1.25 0 0 0 -1.25,-1.26 h -9.39 l 3.27,-2.29 a 1.36,1.36 0 0 0 -0.06,-2 l -3.06,-3.3 c -0.45,-0.51 -1.39,-0.16 -1.72,0.19 L 347.22,17 a 0.76,0.76 0 0 1 -0.08,0.11 h -8.78 a 1.26,1.26 0 0 0 -1.26,1.26 v 43.76 a 1.26,1.26 0 0 0 1.26,1.26 h 27.35 A 1.25,1.25 0 0 0 367,62.13 v -7.2 a 1.24,1.24 0 0 0 -1.25,-1.25 h -18.3 v -8.92 h 15.06 a 1.26,1.26 0 0 0 1.26,-1.26 v -7.2 a 1.3,1.3 0 0 0 -1.26,-1.25 h -15.1 v -8.2 z M 31.46,54.83 30.15,47.71 a 2.91,2.91 0 0 0 -0.94,-1.45 c -1.37,-1.07 -5.08,1.2 -3.34,-7 1.74,-8.2 4.2,-4.6 5.89,-5 a 2.84,2.84 0 0 0 1.44,-1 l 4.09,-6 a 2,2 0 0 0 -0.16,-2.42 c -1.14,-1.17 -3,-2.87 -4.37,-3.17 -3,-0.64 -10.37,4.13 -12.95,16.24 -2.58,12.11 2.19,19.54 5.19,20.18 1.4,0.3 3.77,-0.51 5.28,-1.12 a 2,2 0 0 0 1.14,-2.14"
         fill="#262626" />
    </g>
  </g>
</svg>
